<?xml version="1.0" encoding="UTF-8"?>
<svg id="Layer_1" data-name="Layer 1" xmlns="http://www.w3.org/2000/svg" viewBox="0 0 24.12 26.34">
  <defs>
    <style>
      .cls-1 {
        fill: none;
        stroke: #413732;
        stroke-miterlimit: 10;
        stroke-width: .75px;
      }
    </style>
  </defs>
  <path class="cls-1" d="M.52,17.41c.43,1.17.97,1.3,1.93,1.9.85.57,1.68,1.17,2.53,1.74.8.54,1.59,1.08,2.42,1.56.54.31,1.12.54,1.69.8,1.16.55,2.39.89,3.65,1.12.81.17,1.63.2,2.45.22.5.02,1.01.04,1.5.13.59.11,1.13.36,1.52.85.19.24.45.25.72.2,1.8-.38,3.21-1.83,3.99-3.44.23-.48.38-.99.56-1.49.6-1.86.26-4.14-1.42-5.32-.25-.19-.58-.3-.89-.39-.98-.28-1.93-.07-2.83.33-.31.11-.34.19-.25.51.04.13.05.26.07.4-.03,0-.05.01-.08.02-1.54-3.28-4.76-3.51-7.48-1.48-.22.16-.41.1-.61,0-.05-.02-.09-.18-.07-.26.32-1.22.68-2.44.97-3.67.46-1.86.65-3.9,1.9-5.43.09-.11.18-.22.27-.34.13-.17.3-.2.47-.11.63.35,1.31.37,2.01.35.64-.02,1.28-.04,1.92-.02.58.02,1.28.5,1.84.17.28-.17.35-.53.17-.81-.08-.12-.18-.22-.28-.32-.1-.1-.14-.19,0-.29.09-.07.16-.15.24-.23.27-.27.27-.59.15-.92-.23-.64-.62-1.19-.97-1.77-.12-.2-.23-.4-.33-.61-.15-.29-.39-.43-.7-.47-.36-.04-.71.03-1.05.16-1.05.41-2.09.84-3.1,1.32-1.13.51-2.06.76-2.91,1.74-.67.75-1.33,1.52-2.01,2.25-1.39,1.39-2.75,2.82-4.01,4.33-1.1,1.28-2.09,2.64-2.97,4.09-.34.54-.64,1.1-.95,1.66-.26.48-.23.97-.05,1.47Z"/>
</svg>