<?xml version="1.0" encoding="UTF-8"?>
<svg id="Layer_1" data-name="Layer 1" xmlns="http://www.w3.org/2000/svg" viewBox="0 0 157 178.5">
  <defs>
    <style>
      .cls-1 {
        fill: #2d2927;
      }

      .cls-1, .cls-2 {
        stroke-width: 0px;
      }

      .cls-2 {
        fill: #c22c27;
      }
    </style>
  </defs>
  <path class="cls-1" d="M89.57,58.73c0,1.84-1.49,3.33-3.33,3.33s-3.33-1.49-3.33-3.33,1.49-3.33,3.33-3.33,3.33,1.49,3.33,3.33Z"/>
  <path class="cls-1" d="M107.11,63.33c-12.46-24.5-38.62-23.43-38.62-23.43-60.78-.02-43.61,96.54-43.61,96.54,0,0,0,0,0,0,0,0,1.75,11.1,5.58,25.64,13.28,10.29,29.94,16.41,48.03,16.41,5.9,0,11.64-.65,17.16-1.88.86-.19,1.71-.4,2.56-.62.67-1.56,1.29-3.41,1.75-5.55,2.53-9.61,3.02-18.82,3.02-18.82-.22-21.7-30.65-37.7-30.65-37.7,0,0-8.49-3.9,5.4-12.58.57-.36,1.15-.69,1.74-.98-1.17-.5-2.15-1.28-2.37-2.54-.35-2.09,1.85-3.61,2.58-4.11,1.73-1.19,4.4-2.48,8.17-3.96,5.54-2.16,13.29-6.18,18.75-13.05,2.58-3.25,3.69-5.94,4.04-6.94-1.23-2.08-2.41-4.23-3.54-6.45ZM94.09,66.55c-.1.65-.62,1.14-1.24,1.22-.14.02-.29.02-.44,0-.8-.13-1.35-.88-1.22-1.68,0-2.44-2.74-2.63-4.22-2.56h0c-3.63,0-5.49-1.58-5.49-4.49,0-6.24-3.72-5.57-4.89-5.2l-.34.12c-.76.29-1.61-.09-1.89-.85-.29-.76.09-1.61.85-1.89,4.67-1.78,9.99-.94,13.87,2.21,3.88,3.15,5.8,8.17,5.02,13.11Z"/>
  <path class="cls-1" d="M145.42,108.58c-4.97-3.8-20.34-16.01-32.66-35.36-.72,1.44-1.81,3.31-3.43,5.38-3.27,4.16-9.44,10.01-20.27,14.24-6.14,2.4-8.43,2.93-8.39,4.4,0,1.03.57,1.92,5.15.98,11.97-2.28,24.03,4.13,24.03,4.13,0,0,34.19,17.6,37.17,13.31,3.1-4.45-1.59-7.09-1.59-7.09ZM113.28,83.71c-.5-.75-.47-1.64.07-2,.54-.36,1.38-.04,1.87.71.49.74,1.42,3.12,1.45,3.19-.09-.03-2.9-1.16-3.39-1.89Z"/>
  <path class="cls-2" d="M93.08,43.96s5.55-12.01-7.36-20.39c-12.92-8.38-19.71-12.12-21.53-17.11,0,0-1.36,8.95,5.21,14.73,0,0-9.18-1.13-16.65-17.56,0,0-3.85,8.5,3.06,19.26,0,0-16.2-4.65-21.3-22.89,0,0-4.42,16.31,5.44,24.59,0,0-8.95.57-14.16-13.03,0,0-8.9,15.73-1.02,26.74,9.19,12.84,19.23,5.38,19.23,5.38,0,0,7.73-5.37,18.34-6.32,5.51-.49,18.23-1.25,30.75,6.6Z"/>
</svg>