<?xml version="1.0" encoding="UTF-8"?>
<svg id="Layer_1" data-name="Layer 1" xmlns="http://www.w3.org/2000/svg" viewBox="0 0 127 77.34">
  <defs>
    <style>
      .cls-1 {
        fill: #2d2927;
        stroke-width: 0px;
      }
    </style>
  </defs>
  <path class="cls-1" d="M110.92,37.2c8.23-1.35,13.75-7.24,13.75-15.84,0-13.02-8.96-21.36-28.85-21.36H0v77.34h98.4c18.05,0,28.6-7.86,28.6-21.24,0-11.05-7-17.06-16.08-18.9ZM78.49,16.67h14.7c7.1,0,9.92,3.19,9.92,7.23,0,3.67-2.82,6.86-9.92,6.86h-14.7v-14.09ZM20.7,60.37v-13.51h30.47v-16.96h-30.47v-12.65h37.66v43.12H20.7ZM95.19,60.66h-16.71v-14.37h16.59c7.37,0,10.57,3.07,10.57,7.25s-3.19,7.12-10.44,7.12Z"/>
</svg>