<?xml version="1.0" encoding="UTF-8"?>
<svg id="Layer_1" data-name="Layer 1" xmlns="http://www.w3.org/2000/svg" viewBox="0 0 127 127">
  <defs>
    <style>
      .cls-1 {
        fill: #2d2927;
        stroke-width: 0px;
      }
    </style>
  </defs>
  <path class="cls-1" d="M85.71,59.37c0,4.45,0,8.91,0,13.36,0,2.49.87,4.56,3.03,5.96,3.55,2.3,8.23.74,9.59-3.27,1.54-4.55,2.19-9.23,1.88-14.05-.49-7.65-3.05-14.52-7.81-20.5-6.25-7.86-14.41-12.53-24.4-13.71-11.85-1.39-22.1,2.23-30.56,10.6-6.01,5.94-9.49,13.25-10.38,21.68-1.16,11.09,1.96,20.86,9.5,29.09,6.11,6.67,13.74,10.51,22.73,11.56,8.1.95,15.7-.65,22.76-4.73,3.22-1.86,6.61-.43,7.22,3.05.3,1.71-.6,3.56-2.31,4.57-5.01,2.99-10.39,4.98-16.17,5.88-9.64,1.5-18.91.22-27.57-4.25-13.84-7.14-22.35-18.45-24.91-33.84-2.49-14.97,1.77-28.1,12.15-39.14,7.52-8,16.88-12.61,27.8-13.78,15.47-1.65,28.57,3.42,39.15,14.74,6.56,7.02,10.31,15.48,11.52,25.03.94,7.41.33,14.68-2.41,21.65-3.79,9.65-16.31,12.63-24.21,5.89-1.47-1.25-2.69-2.7-3.6-4.39-.28-.53-.45-.57-.93-.17-4.72,3.91-10.16,5.58-16.26,5.18-9.75-.65-18.45-8.67-19.98-18.4-1.78-11.35,4.73-21.84,15.76-25.07,6.48-1.9,12.64-.9,18.35,2.75.92.59.91.6,1.22-.39.69-2.23,2.74-3.53,5.06-3.2,2.16.31,3.75,2.17,3.76,4.45.01,4.49,0,8.97,0,13.46ZM63.64,76.82c7.49-.28,13.06-5.91,13.04-13.18-.02-7.78-6.03-13.25-13.27-13.18-7.46.08-13.04,5.82-13.04,13.13,0,7.5,5.75,13.07,13.27,13.22Z"/>
</svg>