<?xml version="1.0" encoding="utf-8"?>
<!-- Generator: Adobe Illustrator 28.2.0, SVG Export Plug-In . SVG Version: 6.00 Build 0)  -->
<svg version="1.1" xmlns="http://www.w3.org/2000/svg" xmlns:xlink="http://www.w3.org/1999/xlink" x="0px" y="0px"
	 viewBox="0 0 157 157" style="enable-background:new 0 0 157 157;" xml:space="preserve">
<style type="text/css">
	.st0{fill:#F6F6F6;}
	.st1{fill:#FFFFFF;}
	.st2{fill:#2D5EA6;}
	.st3{fill:#D54633;}
	.st4{fill:#F1D061;}
	.st5{fill:none;}
	.st6{fill:#2E55A0;}
	.st7{opacity:0.66;fill:#8AC9C8;}
	.st8{opacity:0.52;fill:#8AC9C8;}
	.st9{fill:#F0EFEF;}
	.st10{fill:#C53533;}
	.st11{fill:#8AC9C8;}
	.st12{fill-rule:evenodd;clip-rule:evenodd;fill:#2C2927;}
	.st13{fill:none;stroke:#00A799;stroke-width:19;stroke-linecap:round;stroke-linejoin:round;stroke-miterlimit:10;}
	.st14{fill:#00A799;}
	.st15{fill:none;stroke:#123935;stroke-width:4;stroke-miterlimit:10;}
	.st16{fill:none;stroke:#123935;stroke-width:2.6693;stroke-miterlimit:10;}
	.st17{opacity:0.13;}
	.st18{fill:#FEFEFE;}
	.st19{fill:#1A1A1A;}
	.st20{fill:#536763;}
	.st21{fill:#F1F1F1;}
	.st22{fill:#FFAB00;}
	.st23{fill:#CED4DD;}
	.st24{fill:#F8F9FA;}
	.st25{fill:#445469;}
	.st26{fill:#0E1829;}
	.st27{fill:#8554E0;}
	.st28{fill:#F1F3F6;}
	.st29{fill:#314056;}
	.st30{fill:#1A293A;}
	.st31{fill:#F5EAFF;}
	.st32{fill:#A8FAF0;}
	.st33{fill:#E9EBEF;}
	.st34{fill:#703FCC;}
	.st35{fill:#647086;}
	.st36{fill:#5837A3;}
	.st37{fill:#E7FDF1;}
	.st38{fill:#007C43;}
	.st39{fill:#CEDAD9;}
	.st40{fill:#05221F;}
	.st41{fill:#29524D;}
	.st42{fill:#123935;}
	.st43{fill:#E9FFFC;}
	.st44{fill:#00C6B3;}
	.st45{fill:#5E8480;}
	.st46{fill:#009D8E;}
	.st47{fill:#5C4116;}
	.st48{fill:#1C5C56;}
	.st49{fill:#DB9935;}
	.st50{fill:#43DACB;}
	.st51{fill:#E8A238;}
	.st52{fill:#47E7D7;}
	.st53{fill:#C2862F;}
	.st54{fill:#EEECE9;}
	.st55{fill:#3CC1B4;}
	.st56{fill:#E6EFEE;}
	.st57{fill:#FFFFFF;stroke:#5E8480;stroke-miterlimit:10;}
	.st58{fill:#5E8480;stroke:#5E8480;stroke-miterlimit:10;}
	.st59{opacity:0.43;fill:none;stroke:#FF00FF;stroke-width:2;stroke-miterlimit:10;}
	.st60{fill:none;stroke:#FF00FF;stroke-width:2;stroke-miterlimit:10;}
	.st61{opacity:0.43;fill:#29ABE2;stroke:#FF00FF;stroke-width:2;stroke-miterlimit:10;}
	.st62{fill:none;stroke:#00A799;stroke-width:13;stroke-linecap:round;stroke-linejoin:round;stroke-miterlimit:10;}
	.st63{fill:none;stroke:#000000;stroke-width:12.5;stroke-linecap:round;stroke-linejoin:round;stroke-miterlimit:10;}
	.st64{fill:none;stroke:#000000;stroke-width:11;stroke-linecap:round;stroke-linejoin:round;stroke-miterlimit:10;}
	.st65{fill:#615BF6;}
	.st66{fill:#5353E0;}
	.st67{fill:#FFD140;}
	.st68{fill:#FFBF40;}
	.st69{fill:#EABC53;}
	.st70{fill-rule:evenodd;clip-rule:evenodd;fill:#469BDC;}
	.st71{fill-rule:evenodd;clip-rule:evenodd;fill:#1C387F;}
	.st72{fill-rule:evenodd;clip-rule:evenodd;fill:#1C2B6C;}
	.st73{fill:#FFFFFF;stroke:#D3DBDA;stroke-width:2;stroke-miterlimit:10;}
	.st74{fill:#F9B03B;}
	.st75{fill:none;stroke:#000000;stroke-width:13.3231;stroke-linecap:round;stroke-linejoin:round;stroke-miterlimit:10;}
	.st76{fill:none;stroke:#00A799;stroke-width:46;stroke-miterlimit:10;}
	.st77{fill:none;stroke:#00A799;stroke-width:46;stroke-linecap:round;stroke-miterlimit:10;}
	.st78{opacity:0.58;fill:none;stroke:#00A799;stroke-width:32;stroke-linecap:round;stroke-linejoin:round;stroke-miterlimit:10;}
	.st79{fill:#EFA53A;}
	.st80{fill:none;stroke:#00A799;stroke-width:21;stroke-miterlimit:10;}
	.st81{fill:none;stroke:#00A799;stroke-width:19;stroke-miterlimit:10;}
	.st82{fill:none;stroke:#00A799;stroke-width:19;stroke-linecap:round;stroke-miterlimit:10;}
	.st83{fill:none;stroke:#00A799;stroke-width:20;stroke-miterlimit:10;}
	.st84{fill:none;stroke:#00A799;stroke-width:20;stroke-linecap:round;stroke-miterlimit:10;}
	.st85{display:none;}
	.st86{fill:none;stroke:#536763;stroke-miterlimit:10;}
	.st87{fill:none;stroke:#00A799;stroke-width:7;stroke-linecap:round;stroke-linejoin:round;stroke-miterlimit:10;}
	.st88{fill:#2C2927;}
</style>
<g id="Layer_1">
</g>
<g id="Layer_2">
	<path class="st88" d="M78.5,0C35.21,0,0,35.21,0,78.5S35.21,157,78.5,157S157,121.78,157,78.5S121.78,0,78.5,0z M78.5,147.15
		c-6.62,0-13.45-6.79-18.73-18.63c-1.53-3.42-2.88-7.14-4.04-11.1c7.43-0.45,15.05-0.69,22.77-0.69c7.71,0,15.32,0.23,22.75,0.68
		C95.79,135.89,86.84,147.15,78.5,147.15z M78.5,106.87c-8.53,0-16.96,0.27-25.15,0.81c-1.52-7.58-2.44-15.76-2.69-24.26h55.7
		c-0.26,8.79-1.23,16.93-2.71,24.26C95.45,107.15,87.03,106.87,78.5,106.87z M78.5,9.85c6.62,0,13.45,6.79,18.74,18.63
		c1.53,3.42,2.87,7.14,4.04,11.1c-7.43,0.45-15.06,0.69-22.78,0.69c-7.71,0-15.32-0.23-22.74-0.68C61.21,21.11,70.16,9.85,78.5,9.85
		z M78.5,50.13c8.53,0,16.96-0.27,25.16-0.81c1.52,7.58,2.44,15.76,2.69,24.26h-55.7c0.26-8.79,1.23-16.93,2.71-24.26
		C61.55,49.85,69.97,50.13,78.5,50.13z M40.79,73.57H10.05c0.73-10.25,3.71-19.88,8.47-28.4c7.87,1.42,16.24,2.54,24.95,3.35
		C41.95,56.42,41.04,64.86,40.79,73.57z M40.79,83.43c0.25,8.71,1.16,17.16,2.67,25.05c-8.7,0.82-17.08,1.94-24.95,3.35
		c-4.75-8.52-7.73-18.15-8.46-28.4H40.79z M116.21,83.43h30.74c-0.73,10.25-3.71,19.88-8.47,28.4c-7.87-1.42-16.25-2.54-24.95-3.35
		C115.05,100.58,115.96,92.14,116.21,83.43z M116.21,73.57c-0.25-8.71-1.16-17.16-2.67-25.05c8.7-0.82,17.08-1.94,24.95-3.35
		c4.75,8.52,7.73,18.15,8.47,28.4H116.21z M132.5,36.2c-6.76,1.1-13.86,1.98-21.21,2.64c-1.41-5.15-3.1-9.98-5.06-14.37
		c-1.9-4.25-4.01-7.97-6.28-11.16C112.95,17.59,124.23,25.66,132.5,36.2z M57.04,13.31c-2.27,3.19-4.38,6.91-6.28,11.16
		c-1.96,4.39-3.65,9.22-5.06,14.37c-7.35-0.66-14.45-1.54-21.21-2.64C32.77,25.66,44.05,17.59,57.04,13.31z M24.5,120.8
		c6.76-1.1,13.86-1.98,21.21-2.64c1.41,5.15,3.1,9.98,5.06,14.37c1.9,4.25,4.01,7.97,6.28,11.16
		C44.05,139.41,32.77,131.34,24.5,120.8z M99.96,143.69c2.27-3.19,4.38-6.91,6.28-11.16c1.96-4.39,3.65-9.22,5.06-14.37
		c7.35,0.66,14.45,1.54,21.21,2.64C124.23,131.34,112.95,139.41,99.96,143.69z"/>
</g>
</svg>
