<?xml version="1.0" encoding="UTF-8"?>
<svg id="Layer_1" data-name="Layer 1" xmlns="http://www.w3.org/2000/svg" viewBox="0 0 127 127">
  <defs>
    <style>
      .cls-1 {
        fill: #2d2927;
        stroke-width: 0px;
      }
    </style>
  </defs>
  <path class="cls-1" d="M111.9,45.39v3.05c-.63,3.42-2.12,6.38-4.77,8.67-.64.56-.89,1.12-.89,1.95.02,12.9.02,25.8.01,38.7,0,4.94-3.76,8.71-8.68,8.71-23,0-46,0-69,0-.54,0-1.09-.02-1.61-.13-4.25-.88-7.03-4.29-7.03-8.62,0-12.9,0-25.8.01-38.7,0-.8-.23-1.35-.85-1.88-2.41-2.08-3.95-4.71-4.6-7.82-.31-1.48-.64-3.02.09-4.48,3.27-6.57,6.51-13.15,9.86-19.68,1.56-3.05,4.19-4.63,7.65-4.63,20.65-.01,41.3,0,61.95,0,.54,0,1.09.02,1.61.12,2.96.58,5.02,2.29,6.35,4.97,3.28,6.6,6.59,13.18,9.89,19.77ZM63.1,100.61c11.18,0,22.37,0,33.55,0,2.74,0,3.74-1,3.74-3.74,0-11.63,0-23.26,0-34.88,0-.22,0-.45,0-.67.02-.59-.22-.76-.82-.69-5.12.55-9.45-1.03-12.89-4.91-.41-.46-.65-.44-1.04.01-5.78,6.74-16.17,6.65-21.92.02-.49-.56-.78-.52-1.27.01-6.14,6.68-15.77,6.69-21.85.01-.48-.52-.72-.49-1.17.02-3.29,3.7-7.45,5.26-12.36,4.9-1.27-.09-1.27-.1-1.27,1.22,0,11.66,0,23.32,0,34.98,0,2.72,1.01,3.72,3.75,3.72,11.18,0,22.37,0,33.55,0ZM60.15,34.9c0-2.47-.03-4.95.01-7.42.01-.84-.3-1.1-1.12-1.09-3.33.03-6.66.03-9.99,0-.74,0-1.06.27-1.24.98-1.22,4.99-2.49,9.97-3.73,14.95-.25,1-.17,1.09.88,1.09,4.7,0,9.39-.01,14.09.02.82,0,1.13-.26,1.11-1.1-.04-2.47-.01-4.95-.01-7.42ZM66.02,34.8c0,2.51.03,5.01-.01,7.52-.01.84.29,1.1,1.11,1.1,4.63-.03,9.27-.01,13.9-.02,1.05,0,1.13-.09.88-1.09-1.24-4.98-2.5-9.96-3.73-14.95-.18-.71-.5-.99-1.24-.98-3.27.03-6.54.04-9.8,0-.91-.01-1.13.35-1.12,1.19.04,2.41.01,4.82.01,7.23ZM96.18,43.41c2.32,0,4.63,0,6.95,0,1.04,0,1.09-.07.62-1-2.34-4.68-4.7-9.36-7.01-14.05-.67-1.36-1.72-1.96-3.19-1.96-2.79,0-5.59,0-8.38,0-1.03,0-1.1.09-.84,1.12,1.23,4.95,2.49,9.9,3.7,14.86.2.82.6,1.05,1.39,1.04,2.25-.04,4.51-.02,6.76-.02ZM29.83,43.41c2.32,0,4.63-.01,6.95,0,.65,0,.97-.22,1.13-.87,1.25-5.08,2.52-10.16,3.81-15.23.18-.7-.04-.93-.73-.92-2.89.01-5.78-.01-8.67.02-1.28.01-2.22.61-2.8,1.79-2.37,4.77-4.76,9.54-7.16,14.3-.39.76-.14.92.61.91,2.29-.03,4.57,0,6.86-.01ZM51.65,49.27c-2.32,0-4.63,0-6.95,0-1.17,0-1.24.12-.63,1.16,1.66,2.84,4.18,4.38,7.43,4.35,3.35-.03,5.94-1.64,7.61-4.59.47-.83.4-.92-.6-.92-2.29,0-4.57,0-6.86,0ZM74.67,54.83c3.35-.16,5.87-1.62,7.5-4.52.5-.89.42-1.03-.56-1.04-4.67,0-9.33,0-14-.01-.76,0-1.01.16-.58.9,1.71,2.98,4.3,4.48,7.64,4.66ZM28.62,49.28c-2.35,0-4.7.02-7.05,0-.76,0-.91.24-.55.89,1.64,2.99,4.18,4.64,7.55,4.64,3.37,0,5.92-1.65,7.55-4.64.36-.66.2-.9-.56-.89-2.32.03-4.63,0-6.95,0ZM97.59,49.27c-2.32,0-4.63.02-6.95-.01-.83-.01-.95.26-.57.94,1.64,2.94,4.15,4.58,7.49,4.59,3.37.01,5.93-1.62,7.58-4.6.39-.71.2-.94-.59-.93-2.32.03-4.63.01-6.95.01Z"/>
  <path class="cls-1" d="M87.47,77.73c1.4,0,2.8-.02,4.19,0,1.74.03,2.91,1.21,2.95,2.95.19,7.6-6.33,14.18-13.97,14.39-6.85.18-13.44-4.83-14.65-12.16-1.24-7.53,4.02-15.1,11.58-16.4,4.74-.82,8.94.38,12.52,3.64.82.74,1.32,1.64,1.17,2.78-.31,2.28-2.84,3.36-4.71,2.01-.44-.32-.81-.72-1.25-1.03-2.61-1.87-5.44-2.26-8.38-.99-2.89,1.25-4.61,3.5-5.04,6.66-.63,4.59,2.47,8.08,5.74,9.14,3.86,1.24,8.07-.42,10.04-4.01.54-.99.48-1.11-.64-1.11-1.27,0-2.54.01-3.81,0-1.81-.02-3.05-1.24-3.04-2.96.01-1.67,1.25-2.88,3-2.9,1.43-.02,2.86,0,4.29,0Z"/>
</svg>