<?xml version="1.0" encoding="UTF-8"?>
<svg id="Layer_1" data-name="Layer 1" xmlns="http://www.w3.org/2000/svg" viewBox="0 0 127 127">
  <defs>
    <style>
      .cls-1 {
        fill: #2d2927;
        stroke-width: 0px;
      }
    </style>
  </defs>
  <path class="cls-1" d="M63.47,19.75c16.49-.19,31.45,12.08,33.88,29.48.97,6.97-.31,13.65-2.94,20.11-3.03,7.46-7.46,14.06-12.57,20.24-5.2,6.3-11.02,11.97-17.31,17.18-.76.63-1.27.68-2.06.02-10.2-8.54-19.29-18.04-26.05-29.6-3.07-5.25-5.47-10.8-6.5-16.83-1.91-11.18.78-21.12,8.42-29.57,6.5-7.19,15.43-11.03,25.12-11.04ZM63.39,37.74c-9.11.27-16.03,7.2-16,16.16.03,9.32,7.28,16.16,16.24,16.08,9.09-.08,15.91-7.12,15.95-15.96.04-9.35-7.16-16.12-16.18-16.28Z"/>
</svg>