<?xml version="1.0" encoding="UTF-8"?>
<svg id="Layer_1" data-name="Layer 1" xmlns="http://www.w3.org/2000/svg" viewBox="0 0 127 127">
  <defs>
    <style>
      .cls-1 {
        fill: #2d2927;
        stroke-width: 0px;
      }
    </style>
  </defs>
  <path class="cls-1" d="M80.69,110.69c-2.67-.39-5.33-.87-7.9-1.73-6.07-2.02-11.68-4.99-17.08-8.38-6.67-4.19-12.69-9.18-18.06-14.94-8.73-9.36-15.76-19.78-19.74-32.06-1.14-3.53-1.83-7.13-1.61-10.87.18-3.02,1.15-5.72,3.34-7.87,2.67-2.63,5.21-5.4,8.03-7.87,2.53-2.22,5.9-2.25,8.53-.15.55.44,1.08.91,1.58,1.41,3.67,3.72,7.49,7.29,11.01,11.15,2.42,2.66,2.51,6.03.2,8.78-2.15,2.57-4.69,4.78-7.03,7.17-1.32,1.35-1.34,1.55-.53,3.3,2.18,4.72,5.36,8.73,8.8,12.55,4.12,4.59,8.69,8.68,13.9,12.02,1.63,1.05,3.38,1.88,5.11,2.74.82.41,1.46.12,2.06-.49,2.14-2.16,4.29-4.31,6.44-6.46.85-.85,1.77-1.63,2.89-2.09,2.46-1.02,4.69-.53,6.73,1.07.58.45,1.12.96,1.64,1.48,3.4,3.38,6.8,6.75,10.17,10.16,3.39,3.44,3.52,6.98.28,10.48-2.42,2.61-4.97,5.11-7.53,7.58-1.78,1.71-4.03,2.54-6.42,3h-4.79Z"/>
  <path class="cls-1" d="M110.74,60.73c-2.06.34-4.13.61-6.17,1.04-.95.2-1.26-.1-1.42-.96-.73-3.98-2.02-7.77-3.8-11.41-2.42-4.97-5.62-9.36-9.61-13.18-5.46-5.24-11.82-8.95-19.08-11.08-1.89-.55-3.8-1-5.75-1.27-.7-.1-1.01-.37-.89-1.14.3-1.91.54-3.83.8-5.74.09-.63.41-.76,1.03-.66,13.2,2.15,24.16,8.31,32.86,18.43,5.93,6.91,9.81,14.87,11.7,23.79.09.42.21.83.32,1.25v.92Z"/>
  <path class="cls-1" d="M63.02,42.05c.3-2.17.59-4.26.88-6.36.09-.61.48-.57.95-.49,4.18.65,8.1,2.06,11.66,4.31,7.97,5.02,13.03,12.13,15,21.39.16.77.08,1.1-.79,1.21-1.82.24-3.64.55-5.44.93-.8.16-1.07-.04-1.24-.82-1.48-6.88-5.24-12.21-11.13-16.04-2.74-1.77-5.74-2.9-8.95-3.47-.43-.08-.98-.04-.96-.66Z"/>
</svg>