<?xml version="1.0" encoding="UTF-8"?>
<svg id="Layer_1" data-name="Layer 1" xmlns="http://www.w3.org/2000/svg" viewBox="0 0 100 66.68">
  <defs>
    <style>
      .cls-1 {
        fill: #2c2927;
      }

      .cls-1, .cls-2 {
        stroke-width: 0px;
      }

      .cls-2 {
        fill: #fff;
      }
    </style>
  </defs>
  <path class="cls-1" d="M1.86,22.02C13.11-16.14,120.93-2,94.53,43.68c-.67,2.75-7.64,7.84-6.07,8.86,3.35,4.57,7.05,9.01,11.54,12.52.04,2.22-5.3,1.64-7.08,1.22-5.26-1.29-10.15-3.35-14.24-7.01-9.36,3.46-19.28,6.94-30.11,6.31-23.62,1.07-56.82-15.45-46.71-43.58ZM2.91,34.28c1.41,18.66,23.1,27.38,39.49,28.12,10.77.82,21.7-1.14,31.57-5.49,1.83-.24,4.86-3.68,6.18-2.21,2.79,4.93,8.5,7.69,13.9,8.72-1.85-2.71-5.2-5.13-7.26-8.02-1.07-1.46-3.48-4.08-1.24-5.53,10.28-7.82,16.41-25.07,3.6-33.51C68.85-4.43.12-5.14,2.91,34.28Z"/>
  <path class="cls-2" d="M2.91,34.28c1.41,18.66,23.1,27.38,39.49,28.12,10.77.82,21.7-1.14,31.57-5.49,1.83-.24,4.86-3.68,6.18-2.21,2.79,4.93,8.5,7.69,13.9,8.72-1.85-2.71-5.2-5.13-7.26-8.02-1.07-1.46-3.48-4.08-1.24-5.53,10.28-7.82,16.41-25.07,3.6-33.51C68.85-4.43.12-5.14,2.91,34.28Z"/>
  <g>
    <path class="cls-1" d="M24.87,29.54c0,2.56-.37,4.7-1.12,6.43-1.01,2.4-2.6,3.6-4.77,3.6-1.42,0-2.66-.66-3.72-1.98-.18.08-.27.88-.27,2.4,0,3.36.17,5.74.5,7.13.03.13.15.44.37.93.22.49.33.79.33.89,0,.41-.26.62-.78.62-.62,0-1.05-.09-1.3-.27-.25-.18-.46-.78-.64-1.78-.16-.85-.23-1.52-.23-2.01v-9.84c0-.9.05-2.12.14-3.64.09-1.78.15-3,.17-3.64.03-.7.03-1.6,0-2.71v-2.75c0-1.78.46-2.67,1.39-2.67.46,0,.7.17.7.5,0,.65-.05,1.59-.16,2.83-.1,1.24-.16,2.17-.16,2.79h.16c.59-.8,1.19-1.61,1.78-2.44.7-.9,1.56-1.36,2.6-1.36,1.73,0,3.04.78,3.91,2.33.72,1.24,1.08,2.79,1.08,4.65ZM22.93,29.7c0-1.37-.14-2.54-.43-3.53-.44-1.45-1.15-2.17-2.13-2.17-.72,0-1.6.63-2.63,1.9-.9,1.11-1.54,2.25-1.9,3.41-.28.88-.52,2.17-.7,3.88-.1,1.24-.16,1.83-.16,1.78,0,.08.12.21.35.39.15.1.31.22.46.35.41.59.83,1.2,1.25,1.8.42.61,1.06.91,1.91.91,1.41,0,2.48-1.16,3.2-3.49.51-1.65.77-3.4.77-5.23Z"/>
    <path class="cls-1" d="M38.08,36.78c0,.91-.68,1.67-2.05,2.29-1.14.49-2.23.74-3.29.74-.7,0-1.5-.17-2.4-.51-.49-.21-1.28-.75-2.36-1.64-1.19-.96-1.78-1.63-1.78-1.99,0-.81.48-1.17,1.43-1.09h.23c.05.78.88,1.63,2.48,2.54,1.45.84,2.61,1.25,3.49,1.25,1.14,0,1.71-.39,1.71-1.17,0-.47-.7-1.11-2.09-1.94-1.91-1.11-3.22-2.01-3.91-2.68-1.42-1.37-2.13-2.95-2.13-4.74,0-1.35.35-2.63,1.05-3.85.8-1.45,1.81-2.17,3.02-2.17.88,0,1.94.41,3.18,1.22s1.96,1.63,2.17,2.46c.21.7.31,1.51.31,2.44,0,1.01-.18,2.11-.54,3.29-.23.18-.5.27-.81.27-.18,0-.46-.07-.85-.21-.39-.14-.58-.29-.58-.45,0,.1.14-.18.43-.85.21-.44.31-1.24.31-2.4,0-2.76-.87-4.15-2.6-4.15-.9,0-1.63.61-2.17,1.83-.47.98-.7,1.98-.7,2.99,0,1.27.74,2.5,2.21,3.69.49.41,1.85,1.31,4.07,2.68,1.47.91,2.21,1.62,2.21,2.14Z"/>
    <path class="cls-1" d="M50.68,36.78c0,.91-.68,1.67-2.05,2.29-1.14.49-2.23.74-3.29.74-.7,0-1.5-.17-2.4-.51-.49-.21-1.28-.75-2.36-1.64-1.19-.96-1.78-1.63-1.78-1.99,0-.81.48-1.17,1.43-1.09h.23c.05.78.88,1.63,2.48,2.54,1.45.84,2.61,1.25,3.49,1.25,1.14,0,1.71-.39,1.71-1.17,0-.47-.7-1.11-2.09-1.94-1.91-1.11-3.22-2.01-3.91-2.68-1.42-1.37-2.13-2.95-2.13-4.74,0-1.35.35-2.63,1.05-3.85.8-1.45,1.81-2.17,3.02-2.17.88,0,1.94.41,3.18,1.22s1.96,1.63,2.17,2.46c.21.7.31,1.51.31,2.44,0,1.01-.18,2.11-.54,3.29-.23.18-.5.27-.81.27-.18,0-.46-.07-.85-.21-.39-.14-.58-.29-.58-.45,0,.1.14-.18.43-.85.21-.44.31-1.24.31-2.4,0-2.76-.87-4.15-2.6-4.15-.9,0-1.63.61-2.17,1.83-.47.98-.7,1.98-.7,2.99,0,1.27.74,2.5,2.21,3.69.49.41,1.85,1.31,4.07,2.68,1.47.91,2.21,1.62,2.21,2.14Z"/>
    <path class="cls-1" d="M63.27,36.78c0,.91-.68,1.67-2.05,2.29-1.14.49-2.23.74-3.29.74-.7,0-1.5-.17-2.4-.51-.49-.21-1.28-.75-2.36-1.64-1.19-.96-1.78-1.63-1.78-1.99,0-.81.48-1.17,1.43-1.09h.23c.05.78.88,1.63,2.48,2.54,1.45.84,2.61,1.25,3.49,1.25,1.14,0,1.71-.39,1.71-1.17,0-.47-.7-1.11-2.09-1.94-1.91-1.11-3.22-2.01-3.91-2.68-1.42-1.37-2.13-2.95-2.13-4.74,0-1.35.35-2.63,1.05-3.85.8-1.45,1.81-2.17,3.02-2.17.88,0,1.94.41,3.18,1.22s1.96,1.63,2.17,2.46c.21.7.31,1.51.31,2.44,0,1.01-.18,2.11-.54,3.29-.23.18-.5.27-.81.27-.18,0-.46-.07-.85-.21-.39-.14-.58-.29-.58-.45,0,.1.14-.18.43-.85.21-.44.31-1.24.31-2.4,0-2.76-.87-4.15-2.6-4.15-.9,0-1.63.61-2.17,1.83-.47.98-.7,1.98-.7,2.99,0,1.27.74,2.5,2.21,3.69.49.41,1.85,1.31,4.07,2.68,1.47.91,2.21,1.62,2.21,2.14Z"/>
    <path class="cls-1" d="M75.87,36.78c0,.91-.68,1.67-2.05,2.29-1.14.49-2.23.74-3.29.74-.7,0-1.5-.17-2.4-.51-.49-.21-1.28-.75-2.36-1.64-1.19-.96-1.78-1.63-1.78-1.99,0-.81.48-1.17,1.43-1.09h.23c.05.78.88,1.63,2.48,2.54,1.45.84,2.61,1.25,3.49,1.25,1.14,0,1.71-.39,1.71-1.17,0-.47-.7-1.11-2.09-1.94-1.91-1.11-3.22-2.01-3.91-2.68-1.42-1.37-2.13-2.95-2.13-4.74,0-1.35.35-2.63,1.05-3.85.8-1.45,1.81-2.17,3.02-2.17.88,0,1.94.41,3.18,1.22s1.96,1.63,2.17,2.46c.21.7.31,1.51.31,2.44,0,1.01-.18,2.11-.54,3.29-.23.18-.5.27-.81.27-.18,0-.46-.07-.85-.21-.39-.14-.58-.29-.58-.45,0,.1.14-.18.43-.85.21-.44.31-1.24.31-2.4,0-2.76-.87-4.15-2.6-4.15-.9,0-1.63.61-2.17,1.83-.47.98-.7,1.98-.7,2.99,0,1.27.74,2.5,2.21,3.69.49.41,1.85,1.31,4.07,2.68,1.47.91,2.21,1.62,2.21,2.14Z"/>
    <path class="cls-1" d="M84.24,26.83c-.21.16-.7.28-1.47.39-.85.1-1.34.19-1.47.27-.03.28-.04,1.72-.04,4.3,0,2.02.03,3.37.08,4.07,0,.28.06.74.19,1.36.13.62.19,1.1.19,1.43,0,.21-.13.41-.39.62-.26.21-.49.31-.7.31-.52,0-.93-.53-1.24-1.59-.21-.78-.31-1.51-.31-2.21v-8.06c-.15-.13-.73-.13-1.74,0-.81.1-1.21-.19-1.21-.89,0-.98,1.05-1.43,3.14-1.36l.5-7.01c0-.08-.03-.2-.1-.37-.06-.17-.1-.29-.1-.37,0-.15.1-.3.31-.45.21-.14.45-.2.74-.17.9.08,1.36.53,1.36,1.36,0,.65-.09,1.61-.27,2.91-.18,1.29-.27,2.25-.27,2.87,0,.31.03.61.08.89l2.13-.12c.72,0,1.08.28,1.08.85,0,.41-.17.74-.5.97Z"/>
  </g>
</svg>