<?xml version="1.0" encoding="UTF-8"?>
<svg id="Layer_1" data-name="Layer 1" xmlns="http://www.w3.org/2000/svg" viewBox="0 0 22.95 14.14">
  <defs>
    <style>
      .cls-1 {
        fill: #c42d27;
        stroke-width: 0px;
      }
    </style>
  </defs>
  <path class="cls-1" d="M22.75,11.71s1.33-3.9-2.95-6.08c-4.27-2.18-6.5-3.11-7.23-4.6,0,0-.13,2.82,2.09,4.39,0,0-2.88-.05-5.73-4.9,0,0-.92,2.76,1.57,5.87,0,0-5.17-.91-7.34-6.4,0,0-.84,5.2,2.49,7.44,0,0-2.75.47-4.81-3.57,0,0-2.25,5.16.56,8.32,3.26,3.68,6.13,1.04,6.13,1.04,0,0,2.22-1.92,5.47-2.55,1.69-.33,5.61-.98,9.74,1.04Z"/>
</svg>