<?xml version="1.0" encoding="UTF-8"?>
<svg id="Layer_1" data-name="Layer 1" xmlns="http://www.w3.org/2000/svg" viewBox="0 0 152.71 88.71">
  <defs>
    <style>
      .cls-1 {
        fill: #2d2927;
      }

      .cls-1, .cls-2 {
        stroke-width: 0px;
      }

      .cls-2 {
        fill: #c42d27;
      }
    </style>
  </defs>
  <path class="cls-2" d="M137.18,10.63c-.29-.42-.44-1.02-.46-1.79,0-.98.12-2.06.35-3.23.23-1.17.36-1.82.38-1.95v-.1c0-.27-.15-.43-.46-.46-.32-.03-.77-.05-1.33-.05-.6,0-1.05.1-1.37.3-.32.2-.6.6-.86,1.2-.1.21-.2.31-.31.31-.24,0-.36-.31-.36-.92,0-.53.13-1.05.4-1.56s.67-.92,1.2-1.25c.53-.32,1.18-.48,1.94-.48.42,0,1.1.03,2.03.1.94.06,1.59.1,1.96.1.95,0,1.62-.13,2.01-.39.11-.06.22-.16.33-.28.11-.12.19-.18.25-.18.13,0,.23.04.29.11.06.07.1.21.1.4,0,.73-.18,1.38-.53,1.97-.35.59-.83.88-1.43.88-.21,0-.42,0-.63-.02-.21-.02-.4-.03-.56-.05-.39-.05-.7-.07-.94-.07-.23,0-.4.04-.51.11-.11.07-.18.2-.19.38-.08.53-.15,1.17-.22,1.9-.06.73-.1,1.38-.1,1.93,0,.32.13.57.4.74.27.17.55.25.86.25.27,0,.56-.05.85-.15.16-.05.28-.09.35-.12s.12-.05.13-.05c.13,0,.21.03.25.1.04.06.06.19.06.39,0,.34-.12.71-.36,1.11-.24.4-.57.75-.97,1.03-.4.28-.83.42-1.28.42-.55,0-.97-.21-1.26-.63Z"/>
  <path class="cls-2" d="M145.33,10.5c-.54-.51-.94-1.16-1.19-1.96s-.37-1.63-.37-2.51c0-.95.19-1.84.57-2.68.38-.83.92-1.5,1.64-2.01.71-.51,1.53-.76,2.47-.76.84,0,1.55.25,2.14.75.59.5,1.04,1.17,1.34,2.01.31.84.46,1.76.46,2.76,0,.92-.21,1.77-.62,2.56-.41.78-1,1.41-1.76,1.89-.76.48-1.64.71-2.64.71-.82,0-1.51-.25-2.05-.76ZM149.03,8.37c.69-.36,1.24-.85,1.65-1.45.41-.61.62-1.25.62-1.93-.06-.53-.31-.99-.73-1.37-.42-.38-.94-.57-1.57-.57-.73,0-1.41.17-2.05.52-.64.35-1.15.81-1.54,1.39-.39.58-.58,1.19-.58,1.84,0,.57.19,1.06.56,1.48.37.42.85.63,1.43.63.79,0,1.53-.18,2.22-.55Z"/>
  <path class="cls-2" d="M10.85,84.27c-.42.29-1.02.44-1.79.46-.98,0-2.06-.12-3.23-.35-1.17-.23-1.82-.36-1.95-.38h-.1c-.27,0-.43.15-.46.46-.03.32-.05.77-.05,1.33,0,.6.1,1.05.3,1.37.2.31.6.6,1.2.86.21.1.32.2.32.31,0,.24-.31.36-.92.36-.53,0-1.05-.13-1.56-.4s-.92-.67-1.25-1.2c-.32-.53-.48-1.18-.48-1.94,0-.42.03-1.1.1-2.03s.1-1.59.1-1.96c0-.95-.13-1.62-.39-2.01-.06-.11-.16-.22-.28-.33-.12-.1-.18-.19-.18-.25,0-.13.04-.23.11-.29.07-.06.21-.1.4-.1.73,0,1.38.18,1.97.53.59.36.88.83.88,1.43,0,.21,0,.42-.02.63-.02.21-.03.4-.05.56-.05.39-.07.7-.07.94,0,.23.04.4.11.51.07.11.2.18.38.19.53.08,1.17.15,1.9.22.73.06,1.38.1,1.93.1.32,0,.57-.13.74-.4.17-.27.25-.55.25-.86,0-.27-.05-.56-.15-.85-.05-.16-.09-.28-.12-.35-.03-.07-.05-.12-.05-.13,0-.13.03-.21.1-.25s.19-.06.39-.06c.34,0,.71.12,1.11.36.4.24.75.57,1.03.97.28.4.42.83.42,1.28,0,.55-.21.97-.63,1.26Z"/>
  <path class="cls-2" d="M9.07,69.51c-2.77-.33-4.5-.5-5.19-.5-.27,0-.5.06-.67.18-.17.12-.25.29-.25.5,0,.29.32.67.97,1.15.65.48,1.51.96,2.59,1.47,1.08.5,2.22.93,3.41,1.28.52.16.9.3,1.15.41.25.11.38.27.38.46,0,.37-.11.71-.33,1.01-.22.3-.46.45-.74.45-.32,0-.9-.11-1.74-.34l-.63-.15c-.61-.13-1.11-.23-1.48-.29-.37-.06-.78-.1-1.21-.1-.68,0-1.15.09-1.43.27-.27.18-.41.5-.41.97,0,.4.04.71.13.92.09.21.13.33.13.36,0,.1-.02.17-.06.22-.04.05-.13.07-.25.07-.37,0-.77-.11-1.19-.34-.42-.23-.77-.52-1.04-.87-.27-.36-.41-.69-.41-1.02,0-.6.2-1.03.59-1.3.4-.27.99-.4,1.78-.4.52,0,.98.03,1.39.08.41.06.95.16,1.61.3l.07.02s.09-.02.12-.05c.03-.03.05-.06.05-.1,0-.08-.1-.16-.29-.24-1.6-.71-2.89-1.44-3.86-2.19-.98-.75-1.46-1.41-1.46-1.97,0-.32.16-.65.47-.98.31-.33.72-.6,1.21-.81s.98-.32,1.46-.32c1.94,0,4.84.02,8.72.05,0,0-.83,2.11-3.6,1.78Z"/>
  <path class="cls-2" d="M.42,61.87c.28-.4.53-.59.75-.59.44,0,.66.23.66.7,0,.58.08,1.11.25,1.57s.38.84.62,1.1c.25.27.47.4.66.4.12,0,.21-.06.28-.17.07-.11.11-.27.11-.48l-.04-1.48-.04-1.57c0-.78.29-1.38.88-1.82s1.4-.65,2.46-.65c.97,0,1.86.33,2.65.98.79.65,1.41,1.45,1.86,2.39.45.94.67,1.78.67,2.52,0,.34-.1.65-.31.94s-.46.44-.76.44c-.34,0-.62-.11-.84-.33s-.33-.54-.33-.96c0-1.55-.2-2.74-.6-3.57-.4-.83-1.05-1.25-1.93-1.25-.46,0-.84.17-1.16.52s-.48.79-.48,1.32c0,.39.02.87.06,1.45l.04,1.43c0,.45-.15.8-.45,1.04-.3.24-.73.36-1.31.36-.65,0-1.3-.16-1.94-.48s-1.17-.73-1.58-1.24C.2,63.95,0,63.43,0,62.9c0-.29.14-.63.42-1.03Z"/>
  <path class="cls-1" d="M71,25.97l-5.02,21.44h-6.74l8.54-30.85h6.44l8.56,30.85h-6.76l-5.02-21.44Z"/>
  <path class="cls-1" d="M92.29,30.42l4.64-13.86h6.78l-8.26,19.66v11.19h-6.31v-11.19l-8.29-19.66h6.78l4.66,13.86Z"/>
  <path class="cls-1" d="M112.33,36.57v10.85h-6.23v-30.85h10.51c3.05,0,5.48.95,7.3,2.84,1.82,1.89,2.72,4.35,2.72,7.37s-.9,5.41-2.69,7.16c-1.79,1.75-4.28,2.63-7.46,2.63h-4.15ZM112.33,31.37h4.28c1.19,0,2.1-.39,2.75-1.17.65-.78.98-1.91.98-3.39s-.33-2.77-1-3.68c-.66-.91-1.55-1.37-2.67-1.39h-4.34v9.62Z"/>
  <path class="cls-1" d="M151.55,47.41h-6.21v-13.2h-9.2v13.2h-6.23v-30.85h6.23v12.48h9.2v-12.48h6.21v30.85Z"/>
  <path class="cls-1" d="M39.67,87.92h-6.23v-25.66h-9.15v25.66h-6.23v-30.85h21.61v30.85Z"/>
  <path class="cls-1" d="M59.42,81.6h-8.5l-1.65,6.31h-6.59l9.64-30.85h5.7l9.7,30.85h-6.65l-1.65-6.31ZM52.28,76.41h5.76l-2.88-11-2.88,11Z"/>
  <path class="cls-1" d="M92.26,87.92h-6.23v-25.66h-9.15v25.66h-6.23v-30.85h21.61v30.85Z"/>
  <path class="cls-1" d="M103.79,87.92h-6.23v-30.85h6.23v30.85Z"/>
  <path class="cls-1" d="M123.71,81.6h-8.5l-1.65,6.31h-6.59l9.64-30.85h5.7l9.71,30.85h-6.65l-1.65-6.31ZM116.56,76.41h5.76l-2.88-11-2.88,11Z"/>
  <path class="cls-1" d="M148.22,72.51l-6.1,10.26h10.59v5.15h-18.54v-3.2l7.42-12.37-7.42-12.08v-3.2h18.25v5.19h-10.21l6.02,9.94v.32Z"/>
</svg>